# xmcd
#
# Track frame offsets:
#	182
#	4887
#	30922
#	64360
#	99950
#	131435
#	169097
#	201075
#	232837
#	265650
#	287952
#	325917
#
# Disc length: 4408 seconds
#
# Revision: 4
# Processed by: cddbd v1.4PL0 Copyright (c) Steve Scherf et al.
# Submitted via: dBpowerAMP V4.0
#
DISCID=9c11360c
DTITLE=Hank Jones Meets Cheick-Tidane Seck and the Mandinkas - Sarala
DYEAR=1995
DGENRE=World/Jazz
TTITLE0=Aly Kawele 
TTITLE1=Sarala
TTITLE2=Maningafoly
TTITLE3=Tounia Kanibala
TTITLE4=Komidiara
TTITLE5=Fantague
TTITLE6=Make
TTITLE7=Walidi Ya
TTITLE8=Soundjata
TTITLE9=Hank Miri
TTITLE10=Hadja Fadima
TTITLE11=Moriba Ka Foly
EXTD=
EXTT0=
EXTT1=
EXTT2=
EXTT3=
EXTT4=
EXTT5=
EXTT6=
EXTT7=
EXTT8=
EXTT9=
EXTT10=
EXTT11=
PLAYORDER=
